<?xml version="1.0" encoding="UTF-8" standalone="no"?><!DOCTYPE svg PUBLIC "-//W3C//DTD SVG 1.1//EN" "http://www.w3.org/Graphics/SVG/1.1/DTD/svg11.dtd"><svg width="100%" height="100%" viewBox="0 0 360 10" version="1.1" xmlns="http://www.w3.org/2000/svg" xmlns:xlink="http://www.w3.org/1999/xlink" xml:space="preserve" style="fill-rule:evenodd;clip-rule:evenodd;stroke-linejoin:round;stroke-miterlimit:1.41421;"><path d="M360,0l0,2l-7.5,7.5l-7.5,-8l-7.5,8l-7.5,-8l-7.5,8l-7.5,-8l-7.5,8l-7.5,-8l-7.5,8l-7.5,-8l-7.5,8l-7.5,-8l-7.5,8l-7.5,-8l-7.5,8l-7.5,-8l-7.5,8l-7.5,-8l-7.5,8l-7.5,-8l-7.5,8l-7.5,-8l-7.5,8l-7.5,-8l-7.5,8l-7.5,-8l-7.5,8l-7.5,-8l-7.5,8l-7.5,-8l-7.5,8l-7.5,-8l-7.5,8l-7.5,-8l-7.5,8l-7.5,-8l-7.5,8l-7.5,-8l-7.5,8l-7.5,-8l-7.5,8l-7.5,-8l-7.5,8l-7.5,-8l-7.5,8l-7.5,-8l-7.5,8l-7.5,-7.5l0,-2l7.5,8l7.5,-8l7.5,8l7.5,-8l7.5,8l7.5,-8l7.5,8l7.5,-8l7.5,8l7.5,-8l7.5,8l7.5,-8l7.5,8l7.5,-8l7.5,8l7.5,-8l7.5,8l7.5,-8l7.5,8l7.5,-8l7.5,8l7.5,-8l7.5,8l7.5,-8l7.5,8l7.5,-8l7.5,8l7.5,-8l7.5,8l7.5,-8l7.5,8l7.5,-8l7.5,8l7.5,-8l7.5,8l7.5,-8l7.5,8l7.5,-8l7.5,8l7.5,-8l7.5,8l7.5,-8l7.5,8l7.5,-8l7.5,8l7.5,-8l7.5,8l7.5,-8Z" style="fill:#dad9d9;fill-rule:nonzero;"/><g><path d="M90,0l15,0l-7.5,8l-7.5,-8Z" style="fill:#fff;fill-rule:nonzero;"/><path d="M105,0l15,0l-7.5,8l-7.5,-8Z" style="fill:#fff;fill-rule:nonzero;"/><path d="M75,0l15,0l-7.5,8l-7.5,-8Z" style="fill:#fff;fill-rule:nonzero;"/><path d="M150,0l15,0l-7.5,8l-7.5,-8Z" style="fill:#fff;fill-rule:nonzero;"/><path d="M135,0l15,0l-7.5,8l-7.5,-8Z" style="fill:#fff;fill-rule:nonzero;"/><path d="M120,0l15,0l-7.5,8l-7.5,-8Z" style="fill:#fff;fill-rule:nonzero;"/><path d="M165,0l15,0l-7.5,8l-7.5,-8Z" style="fill:#fff;fill-rule:nonzero;"/><path d="M45,0l15,0l-7.5,8l-7.5,-8Z" style="fill:#fff;fill-rule:nonzero;"/><path d="M0,0l15,0l-7.5,8l-7.5,-8Z" style="fill:#fff;fill-rule:nonzero;"/><path d="M30,0l15,0l-7.5,8l-7.5,-8Z" style="fill:#fff;fill-rule:nonzero;"/><path d="M15,0l15,0l-7.5,8l-7.5,-8Z" style="fill:#fff;fill-rule:nonzero;"/><path d="M60,0l15,0l-7.5,8l-7.5,-8Z" style="fill:#fff;fill-rule:nonzero;"/><path d="M300,0l15,0l-7.5,8l-7.5,-8Z" style="fill:#fff;fill-rule:nonzero;"/><path d="M270,0l15,0l-7.5,8l-7.5,-8Z" style="fill:#fff;fill-rule:nonzero;"/><path d="M180,0l15,0l-7.5,8l-7.5,-8Z" style="fill:#fff;fill-rule:nonzero;"/><path d="M285,0l15,0l-7.5,8l-7.5,-8Z" style="fill:#fff;fill-rule:nonzero;"/><path d="M330,0l15,0l-7.5,8l-7.5,-8Z" style="fill:#fff;fill-rule:nonzero;"/><path d="M345,0l15,0l-7.5,8l-7.5,-8Z" style="fill:#fff;fill-rule:nonzero;"/><path d="M315,0l15,0l-7.5,8l-7.5,-8Z" style="fill:#fff;fill-rule:nonzero;"/><path d="M195,0l15,0l-7.5,8l-7.5,-8Z" style="fill:#fff;fill-rule:nonzero;"/><path d="M210,0l15,0l-7.5,8l-7.5,-8Z" style="fill:#fff;fill-rule:nonzero;"/><path d="M240,0l15,0l-7.5,8l-7.5,-8Z" style="fill:#fff;fill-rule:nonzero;"/><path d="M255,0l15,0l-7.5,8l-7.5,-8Z" style="fill:#fff;fill-rule:nonzero;"/><path d="M225,0l15,0l-7.5,8l-7.5,-8Z" style="fill:#fff;fill-rule:nonzero;"/></g></svg>